<svg width="1536" height="900" viewBox="0 0 1536 900" fill="none" xmlns="http://www.w3.org/2000/svg">
<rect width="1440" height="700" transform="translate(0 100)" fill="url(#paint0_linear_118_132)"/>
<circle cx="1086" cy="450" r="50" fill="white"/>
<path d="M1045.52 458V440.545H1052.4C1053.73 440.545 1054.86 440.798 1055.79 441.304C1056.72 441.804 1057.43 442.5 1057.92 443.392C1058.41 444.278 1058.66 445.301 1058.66 446.46C1058.66 447.619 1058.41 448.642 1057.91 449.528C1057.41 450.415 1056.68 451.105 1055.74 451.599C1054.79 452.094 1053.65 452.341 1052.31 452.341H1047.92V449.384H1051.71C1052.42 449.384 1053.01 449.261 1053.47 449.017C1053.93 448.767 1054.28 448.423 1054.51 447.986C1054.74 447.543 1054.86 447.034 1054.86 446.46C1054.86 445.881 1054.74 445.375 1054.51 444.943C1054.28 444.506 1053.93 444.168 1053.47 443.929C1053 443.685 1052.41 443.562 1051.7 443.562H1049.21V458H1045.52ZM1063.23 462.909C1062.77 462.909 1062.34 462.872 1061.93 462.798C1061.54 462.73 1061.21 462.642 1060.95 462.534L1061.76 459.824C1062.19 459.955 1062.57 460.026 1062.91 460.037C1063.26 460.048 1063.56 459.969 1063.81 459.798C1064.06 459.628 1064.27 459.338 1064.43 458.929L1064.64 458.375L1059.95 444.909H1063.77L1066.48 454.523H1066.61L1069.35 444.909H1073.19L1068.1 459.415C1067.86 460.119 1067.53 460.733 1067.11 461.256C1066.69 461.784 1066.17 462.19 1065.53 462.474C1064.89 462.764 1064.13 462.909 1063.23 462.909ZM1082.01 444.909V447.636H1074.13V444.909H1082.01ZM1075.92 441.773H1079.55V453.977C1079.55 454.312 1079.6 454.574 1079.7 454.761C1079.81 454.943 1079.95 455.071 1080.13 455.145C1080.32 455.219 1080.53 455.256 1080.78 455.256C1080.95 455.256 1081.12 455.241 1081.29 455.213C1081.46 455.179 1081.59 455.153 1081.68 455.136L1082.25 457.838C1082.07 457.895 1081.81 457.96 1081.49 458.034C1081.16 458.114 1080.75 458.162 1080.28 458.179C1079.41 458.213 1078.64 458.097 1077.98 457.83C1077.33 457.562 1076.82 457.148 1076.46 456.585C1076.09 456.023 1075.91 455.312 1075.92 454.455V441.773ZM1088.29 450.432V458H1084.66V440.545H1088.19V447.219H1088.34C1088.64 446.446 1089.11 445.841 1089.77 445.403C1090.43 444.96 1091.26 444.739 1092.25 444.739C1093.16 444.739 1093.96 444.938 1094.63 445.335C1095.31 445.727 1095.84 446.293 1096.22 447.031C1096.6 447.764 1096.78 448.642 1096.78 449.665V458H1093.15V450.312C1093.15 449.506 1092.95 448.878 1092.53 448.429C1092.13 447.98 1091.55 447.756 1090.81 447.756C1090.32 447.756 1089.88 447.861 1089.5 448.071C1089.13 448.281 1088.83 448.588 1088.61 448.991C1088.4 449.389 1088.3 449.869 1088.29 450.432ZM1105.55 458.256C1104.23 458.256 1103.08 457.974 1102.12 457.412C1101.16 456.844 1100.41 456.054 1099.89 455.043C1099.37 454.026 1099.11 452.847 1099.11 451.506C1099.11 450.153 1099.37 448.972 1099.89 447.96C1100.41 446.943 1101.16 446.153 1102.12 445.591C1103.08 445.023 1104.23 444.739 1105.55 444.739C1106.88 444.739 1108.02 445.023 1108.98 445.591C1109.94 446.153 1110.69 446.943 1111.21 447.96C1111.73 448.972 1111.99 450.153 1111.99 451.506C1111.99 452.847 1111.73 454.026 1111.21 455.043C1110.69 456.054 1109.94 456.844 1108.98 457.412C1108.02 457.974 1106.88 458.256 1105.55 458.256ZM1105.57 455.443C1106.17 455.443 1106.67 455.273 1107.08 454.932C1107.48 454.585 1107.78 454.114 1107.99 453.517C1108.2 452.92 1108.3 452.241 1108.3 451.48C1108.3 450.719 1108.2 450.04 1107.99 449.443C1107.78 448.847 1107.48 448.375 1107.08 448.028C1106.67 447.682 1106.17 447.509 1105.57 447.509C1104.96 447.509 1104.45 447.682 1104.03 448.028C1103.63 448.375 1103.32 448.847 1103.11 449.443C1102.9 450.04 1102.8 450.719 1102.8 451.48C1102.8 452.241 1102.9 452.92 1103.11 453.517C1103.32 454.114 1103.63 454.585 1104.03 454.932C1104.45 455.273 1104.96 455.443 1105.57 455.443ZM1117.99 450.432V458H1114.36V444.909H1117.82V447.219H1117.97C1118.26 446.457 1118.74 445.855 1119.43 445.412C1120.11 444.963 1120.93 444.739 1121.91 444.739C1122.82 444.739 1123.61 444.938 1124.28 445.335C1124.96 445.733 1125.49 446.301 1125.86 447.04C1126.24 447.773 1126.42 448.648 1126.42 449.665V458H1122.79V450.312C1122.8 449.511 1122.59 448.886 1122.18 448.438C1121.76 447.983 1121.19 447.756 1120.47 447.756C1119.98 447.756 1119.55 447.861 1119.17 448.071C1118.8 448.281 1118.51 448.588 1118.3 448.991C1118.1 449.389 1117.99 449.869 1117.99 450.432Z" fill="#FF7B00"/>
<circle cx="1086" cy="450" r="148.5" stroke="white" stroke-width="3"/>
<circle cx="1086" cy="450" r="148.5" stroke="white" stroke-width="3"/>
<circle cx="1192" cy="550" r="49" fill="#007D9E" stroke="white" stroke-width="2"/>
<path d="M1188.79 535C1187.65 535 1186.56 535.452 1185.76 536.257C1184.95 537.061 1184.5 538.152 1184.5 539.29V541.81H1190.93C1191.52 541.81 1192 542.665 1192 543.25H1181.29C1180.15 543.25 1179.06 543.702 1178.26 544.507C1177.45 545.311 1177 546.402 1177 547.54V553.211C1177 554.349 1177.45 555.44 1178.26 556.245C1179.06 557.05 1180.15 557.501 1181.29 557.501H1183.06V553.482C1183.06 552.919 1183.17 552.361 1183.38 551.841C1183.6 551.321 1183.91 550.847 1184.31 550.449C1184.7 550.05 1185.18 549.734 1185.7 549.518C1186.22 549.303 1186.77 549.191 1187.34 549.192H1195.21C1197.58 549.192 1199.5 547.285 1199.5 544.915V539.29C1199.5 538.152 1199.05 537.061 1198.24 536.257C1197.44 535.452 1196.35 535 1195.21 535H1188.79ZM1187.71 537.415C1188.31 537.415 1188.79 537.595 1188.79 538.48C1188.79 539.365 1188.31 539.816 1187.71 539.816C1187.13 539.816 1186.65 539.367 1186.65 538.482C1186.65 537.597 1187.13 537.415 1187.71 537.415Z" fill="#0288D1"/>
<path d="M1200.94 542.5V546.52C1200.94 547.083 1200.83 547.64 1200.62 548.16C1200.4 548.68 1200.09 549.153 1199.69 549.552C1199.29 549.95 1198.82 550.266 1198.3 550.482C1197.78 550.697 1197.23 550.809 1196.66 550.808H1188.79C1188.23 550.807 1187.67 550.916 1187.15 551.13C1186.63 551.344 1186.16 551.658 1185.76 552.055C1185.36 552.452 1185.04 552.924 1184.83 553.444C1184.61 553.964 1184.5 554.521 1184.5 555.083V560.708C1184.5 561.846 1184.95 562.937 1185.76 563.742C1186.56 564.547 1187.65 564.999 1188.79 564.999H1195.21C1196.35 564.999 1197.44 564.547 1198.24 563.743C1199.05 562.938 1199.5 561.848 1199.5 560.71V558.19H1193.06C1192.48 558.19 1192 557.335 1192 556.75H1202.71C1203.85 556.75 1204.94 556.298 1205.74 555.493C1206.55 554.689 1207 553.598 1207 552.46V546.79C1207 545.652 1206.55 544.561 1205.74 543.757C1204.94 542.952 1203.85 542.5 1202.71 542.5H1200.94ZM1186.48 549.269L1186.47 549.276L1186.53 549.269H1186.48ZM1196.29 560.183C1196.87 560.183 1197.35 560.634 1197.35 561.519C1197.35 561.658 1197.33 561.797 1197.27 561.926C1197.22 562.055 1197.14 562.173 1197.04 562.272C1196.94 562.37 1196.83 562.449 1196.7 562.502C1196.57 562.556 1196.43 562.583 1196.29 562.583C1195.69 562.583 1195.21 562.404 1195.21 561.519C1195.21 560.634 1195.69 560.183 1196.29 560.183Z" fill="#FDD835"/>
<circle cx="1086" cy="450" r="248.5" stroke="white" stroke-width="3"/>
<circle cx="1086" cy="450" r="248.5" stroke="white" stroke-width="3"/>
<circle cx="1143" cy="212" r="49" fill="#FCEA2B" stroke="white" stroke-width="2"/>
<path d="M1146.01 228.997L1142.75 228.912L1142.92 226.939L1143.03 225.135H1142.59V223.656H1142.33L1142.31 223.02L1143.09 222.86L1143.16 217.439L1142.57 217.407L1142.6 215.939L1142.32 215.907L1142.34 215.149H1143.13L1143.14 213.865L1142.35 213.855V213.252H1141.98V213.117L1141.77 213.133L1141.39 212.458L1144.37 211.818L1147.38 212.525L1146.95 213.109L1146.72 213.121L1146.73 213.208L1146.33 213.268L1146.29 213.829L1145.43 213.86L1145.44 215.387L1147.42 215.422L1147.51 212.886L1147.74 209.945L1147.69 208.948L1141.46 209.307L1136.23 209.574L1136.16 211.307L1136.16 213.116L1135.99 215.825L1138.28 215.878L1138.27 214.867L1137.66 214.896L1137.61 214.237L1137.17 214.269L1136.74 213.567L1139.3 212.999L1142.04 213.562L1141.28 214.144L1141.02 214.182L1140.99 214.711L1140.34 214.775L1140.28 215.984L1140.83 215.943V217.716H1140.38L1140.31 219.776L1140.51 221.704L1140.6 222.207H1140.96L1140.86 224.295L1140.59 224.254L1140.67 227.705H1138.23L1138.43 224.283L1136.44 224.459L1136.4 227.878L1132.49 227.831L1132.87 226.27L1133.07 224.652L1130.1 224.725L1130.58 228.179L1127.88 228.128L1127.96 224.615L1127.46 224.532L1127.31 222.662L1128.16 222.532V217.588H1127.64V216.349L1127.49 216.249L1127.2 215.641L1128.12 215.407V214.261L1127.38 214.22L1127.34 213.719H1127.09L1126.39 213.137L1128.95 212.379L1132.12 213.142L1131.78 213.611L1131.09 213.768L1131 214.398H1130.2L1130.23 215.542L1133.59 215.733L1133.93 209.688L1129.53 209.858L1129.44 208.191H1129.22L1129.29 207.523L1129.47 207.327L1129.56 207.327C1129.57 207.327 1129.75 207.332 1130.62 207.458C1131.24 207.547 1132.53 207.483 1133.19 207.441L1132.94 207.396L1134.14 206.331V205.861L1133.71 205.779L1133.67 205.187C1133.3 205.211 1132.52 205.258 1132.06 205.258C1131.47 205.258 1129.5 205.094 1129.42 205.087L1129.28 205.076L1128.81 203.46L1127.85 203.374L1127.61 202.604L1126.03 202.408L1125.37 202.359L1125 201.701L1126.38 200.488L1125.86 198.732L1126.24 198.88C1126.26 198.886 1127.77 199.477 1129.84 199.978C1131.92 200.481 1142.53 199.759 1148.09 199.039C1153.58 198.328 1160.39 195.092 1160.46 195.059L1160.58 195.002L1160.95 195.337L1160.51 196.695L1160 196.965L1159.93 197.32L1161 199.665L1160.5 200.054L1157.87 200.782L1157.77 201.057L1156.57 201.408L1155.95 203.069L1155.84 203.088C1155.83 203.09 1154.55 203.301 1153.66 203.51C1152.88 203.692 1151.05 203.833 1150.46 203.875L1150.43 204.88L1150.03 204.892L1150.02 205.305L1151.19 205.922L1151.22 206.189L1151.5 206.158C1152.44 206.058 1155.31 205.635 1155.63 205.587H1155.69L1155.77 205.611L1156.08 205.793L1156.11 206.359L1155.81 206.436L1155.79 208.411L1150.02 208.849L1149.91 209.99L1150.13 212.183L1150.39 213.404L1150.71 215.597L1153.22 215.616L1153.17 214.455L1152.35 214.465L1152.33 213.825H1152.02L1152 213.711L1151.67 213.739L1151.32 213.092L1154.14 212.52L1157.23 213.141L1156.36 213.576L1156.39 213.751L1156 213.785L1156.05 214.328L1155.2 214.404L1155.19 215.655L1155.69 215.699V216.389L1155.55 216.367V217.72L1155.21 217.73L1155.25 221.777L1155.32 222.558H1155.77L1155.82 223.203L1155.7 223.228L1155.69 224.572L1155.31 224.613L1155.39 225.912L1155.67 228.041L1155.01 228.238L1154.11 228.258L1152.99 228.157L1153 225.891L1153.08 224.77L1151.23 224.838L1151.35 225.705L1151.43 227.216L1151.81 228.353L1150.98 228.589L1149.14 228.663L1147.58 228.542L1147.59 226.55L1147.65 225.042L1145.66 225.077L1145.7 225.981L1145.9 227.23L1146.01 228.997ZM1145.57 222.809L1147.57 222.879L1147.3 220.58L1147.38 217.659L1145.49 217.537L1145.57 222.809ZM1150.97 217.731L1151.2 220.112L1151.28 222.704L1153.22 222.562V217.677L1150.97 217.731ZM1130.15 217.663L1130.17 222.516L1133.31 222.367L1133.1 221.556V219.769L1133.39 217.831L1130.15 217.663ZM1135.98 217.791L1136.04 219.369L1136.05 220.948L1136.16 222.332L1138.31 222.295L1138.28 217.799L1135.98 217.791ZM1136.19 206.416L1137.17 206.948L1137.14 207.174L1139.91 207.065L1139.87 207.012L1139.94 206.52L1139.68 206.115L1139.7 205.535L1139.4 205.182L1139.47 204.786L1136.64 204.979L1136.6 205.876L1136.16 205.898L1136.19 206.416ZM1143.72 206.413L1143.71 206.69L1146.5 206.554L1146.63 206.166L1147.81 205.39L1147.83 204.909L1147.22 204.883L1147.24 204.095L1144.17 204.475L1144.05 204.956V205.076L1144 205.355L1143.91 205.569L1143.89 206.142L1143.72 206.413Z" fill="black"/>
<circle cx="1086" cy="450" r="348.5" stroke="white" stroke-width="3"/>
<circle cx="1086" cy="450" r="348.5" stroke="white" stroke-width="3"/>
<circle cx="776" cy="300" r="49" fill="#215732" stroke="white" stroke-width="2"/>
<path d="M782.75 284.25H787.25V288.75H782.75V284.25ZM782.75 293.25V306.896C782.747 308.05 782.287 309.156 781.472 309.972C780.656 310.787 779.55 311.247 778.396 311.25H778.25V315.75H778.396C779.559 315.751 780.711 315.522 781.785 315.077C782.86 314.633 783.836 313.98 784.658 313.158C785.48 312.336 786.133 311.36 786.577 310.285C787.022 309.211 787.251 308.059 787.25 306.896V293.25H782.75ZM773.75 284.25H778.25V306.75H773.75V284.25Z" fill="#43A047"/>
<path d="M771.318 295.5C771.963 295.501 772.581 295.757 773.037 296.213C773.493 296.669 773.749 297.287 773.75 297.932V303.507L772.884 303.796C771.862 304.136 770.765 304.179 769.72 303.917C768.943 303.723 768.253 303.275 767.76 302.643C767.267 302.012 766.999 301.233 767 300.432V299.817C767.001 298.672 767.456 297.574 768.266 296.765C769.075 295.956 770.173 295.501 771.318 295.5ZM771.318 291C768.98 291.001 766.737 291.93 765.084 293.583C763.43 295.236 762.501 297.478 762.5 299.817V300.432C762.499 302.237 763.102 303.99 764.213 305.412C765.324 306.835 766.878 307.845 768.629 308.282C770.504 308.751 772.474 308.675 774.307 308.064L778.25 306.75V297.932C778.25 297.022 778.071 296.12 777.723 295.279C777.375 294.438 776.864 293.674 776.22 293.03C775.576 292.386 774.812 291.875 773.971 291.527C773.13 291.179 772.228 291 771.318 291Z" fill="#43A047"/>
<circle cx="1086" cy="450" r="448.5" stroke="white" stroke-width="3"/>
<circle cx="1086" cy="450" r="448.5" stroke="white" stroke-width="3"/>
<circle cx="698" cy="688" r="49" fill="white" stroke="white" stroke-width="2"/>
<path d="M690.758 700.553C686.983 698.341 683.76 693.002 682.094 688.318C681.424 686.286 681.195 684.108 680.332 682.155C679.43 680.736 680.487 679.185 682.041 678.734C682.733 678.601 683.949 677.949 682.481 678.415C681.164 679.381 681.037 677.538 682.387 677.422C683.308 677.299 683.647 676.545 683.332 675.866C682.343 675.221 685.73 674.512 684.026 673.55C682.251 671.635 686.51 671.266 685.459 673.441C685.207 675.114 688.435 673.135 687.686 675.066C688.447 675.994 690.536 675.277 690.484 676.579C691.593 676.655 691.973 677.588 693.014 677.66C694.093 678.147 696.048 678.53 696.415 679.746C695.345 680.593 692.867 677.996 692.748 680.341C693.199 688.614 693.627 691.466 697.622 695.8C700.313 698.844 704.01 700.28 707.131 700.791C707.804 700.277 708.991 698.365 710.039 699.171C710.089 700.077 707.958 701.065 709.939 700.965C711.103 700.614 711.91 701.864 712.868 700.736C713.751 701.782 716.537 700.068 715.909 702.205C715.059 702.753 713.821 702.422 712.97 703.176C711.568 702.475 710.451 703.803 708.898 703.635C702.912 704.683 695.112 703.738 690.758 700.553ZM697.793 703.142C700.403 703.505 703.098 704.063 705.717 703.554C704.532 703.019 703.306 703.763 702.125 703.171C700.709 703.476 699.189 703.094 697.749 702.905C696.112 702.176 694.345 701.675 692.812 700.728C690.896 700.028 693.803 701.625 694.32 701.755C695.518 702.435 693.003 701.406 692.649 701.124C691.646 700.561 691.492 700.692 692.524 701.264C694.133 702.26 696.149 702.936 697.793 703.142ZM690.324 699.584C691.779 700.123 690.318 698.562 689.651 698.652C689.356 698.14 688.523 697.816 689.111 697.541C688.054 697.908 688.004 696.146 687.507 696.398C686.389 696.045 687.072 694.794 685.74 694.026C685.619 693.217 684.417 692.515 684.034 691.295C683.864 690.67 682.676 688.875 683.406 690.545C684.028 692.153 685.121 693.53 686.031 694.905C686.738 696.215 687.572 697.583 688.859 698.4C689.293 698.816 689.712 699.454 690.324 699.584ZM692.197 697.05C691.402 696.626 689.669 696.406 690.892 697.377C691.676 697.694 693.676 697.848 692.197 697.05M693.531 698.736C695.24 699.22 692.094 697.656 693.109 698.559L693.531 698.736ZM693.546 697.831C694.787 697.991 692.068 696.986 693.273 697.741L693.546 697.831ZM697.861 700.484C699.02 699.791 698.638 702.107 699.827 700.68C701.001 699.823 698.814 701.739 700.26 700.832C701.306 700.133 702.851 701.164 703.827 701.5C704.529 701.466 705.211 702.107 705.93 701.717C707.315 701.344 703.222 701.164 704.295 700.502C703.028 700.871 702.091 700.062 701.468 699.251C700.046 698.922 698.403 698.196 697.693 696.938C697.404 696.465 698.111 697.004 697.444 696.232C696.587 695.47 696.159 694.605 695.584 693.679C694.897 693.313 694.817 692.234 694.748 693.643C694.753 692.754 693.919 692.155 693.715 692.404C693.711 691.548 694.608 691.977 693.98 691.343C693.845 690.456 693.4 689.531 693.266 688.529C693.058 688.046 693.237 687.011 692.557 688.105C692.309 689.261 692.475 686.685 692.86 687.534C693.366 686.667 692.678 686.769 692.65 686.89C692.98 686.158 692.859 685.121 692.564 685.517C692.74 684.742 692.842 682.664 692.302 683.032C692.629 682.222 692.922 679.323 691.501 680.428C690.925 680.436 689.928 680.637 689.456 680.872C690.935 681.687 689.308 681.166 688.706 681.037C688.627 681.791 688.032 681.464 687.287 681.472C688.476 681.619 686.708 682.688 686.026 682.273C685.139 682.696 686.79 683.754 686.043 684.08C686.135 684.573 684.686 683.903 684.8 685.04C683.939 684.679 684.681 686.39 685.112 685.811C686.575 686.207 686.141 687.11 686.179 687.968C685.94 688.467 685.002 686.793 685.97 686.871C685.206 685.63 685.125 686.422 684.49 686.999C684.343 687.04 686.109 687.818 685.001 688.203C685.976 688.354 686.003 689.207 686.202 689.747C686.788 690.357 686.668 689.073 687.369 689.807C686.926 689.153 685.019 687.965 686.554 688.346C686.546 687.688 686.276 687.158 686.747 687.171C687.213 686.327 686.259 689.25 687.309 688.178C687.6 688.052 687.672 687.334 688.194 688.246C688.953 688.993 688.468 689.534 687.398 688.85C687.589 689.5 688.829 689.732 688.596 690.748C688.844 691.641 689.189 691.312 689.491 691.26C689.727 692.129 689.861 691.49 689.872 691.077C690.955 691.309 690.701 691.949 691.04 692.396C691.786 692.732 689.972 690.114 691.253 691.608C692.6 692.825 691.765 693.244 690.549 693.137C691.561 693.22 691.582 694.121 692.518 694.133C693.332 694.553 693.973 696.127 692.469 695.463C691.62 694.937 690.109 694.429 691.617 695.324C691.974 695.549 694.117 696.355 695.46 697.164C696.204 697.673 696.837 698.637 697.201 698.792C696.393 699.178 694.766 698.484 695.974 698.271C695.221 698.134 694.399 697.748 695.095 698.692C695.693 699.239 697.27 699.15 697.549 699.208C697.312 699.731 696.905 699.772 697.559 699.813C696.83 700.202 697.793 700.262 697.861 700.484ZM696.29 695.694C695.81 694.938 695.925 695.807 696.369 696.271C697.078 697.115 696.536 695.793 696.29 695.694ZM693.641 691.781C693.641 691.781 693.76 690.983 693.395 690.894C693.03 690.806 693.231 690.953 693.523 691.585C693.592 691.735 693.635 691.788 693.635 691.784M689.647 688.756C689.285 687.944 689.82 688.385 689.742 688.039C689.575 687.691 687.948 685.842 688.689 687.238C689.359 688.902 688.267 687.029 688.153 686.462C688.028 686.81 688.419 687.95 688.655 688.339C689.257 689.266 688.986 687.832 689.647 688.756ZM686.317 685.555C685.376 684.763 686.607 685.945 686.225 685.93C685.233 685.206 685.639 685.719 686.199 686.276C686.806 687.178 687.307 685.735 686.317 685.555ZM686.8 685.691C688.581 686.18 684.905 683.973 686.534 685.422L686.8 685.691ZM691.727 687.795C691.216 687.806 691.939 686.683 691.254 686.904C691.014 685.159 690.496 687.711 691.201 688.134C691.418 688.759 691.647 688.504 691.727 687.795M687.524 685.312C689.895 686.406 685.807 683.502 686.854 684.946C686.978 685.224 687.276 685.247 687.524 685.312ZM687.796 684.745C689.591 685.487 687.636 684.262 687.014 684.395C687.171 684.624 687.596 684.524 687.796 684.745ZM688.036 684.073C688.619 683.957 687.959 683.77 687.61 683.493C686.804 682.282 687.73 683.591 687.477 683.962C687.812 684.292 688.953 684.882 688.036 684.073ZM692.16 682.194C691.922 683.452 691.679 682.928 692.02 681.99C691.938 680.786 691.207 682.727 691.53 683.296C692.065 684.148 692.599 681.204 692.16 682.194ZM692.87 697.172C693.796 697.409 693.791 697.028 692.955 696.915C692.505 696.496 691.084 696.052 692.356 696.863C692.44 697.076 692.706 697.071 692.87 697.172ZM689.583 694.989C690.093 695.369 691.504 696.067 690.31 695.133C690.713 694.666 689.539 694.416 689.928 694.103C688.938 693.497 689.147 693.551 689.841 693.57C688.651 693.038 690.013 693.078 689.949 692.806C689.49 692.715 687.669 691.997 688.74 692.865C687.651 692.31 688.481 693.071 688.152 692.991C687.038 692.687 689.143 693.839 687.975 693.553C688.613 694.059 689.694 694.849 688.245 694.089C688.054 694.363 689.282 694.78 689.583 694.989M701.151 701.772C701.639 701.299 701.171 702.526 701.96 701.656C701.968 701.034 701.935 700.666 701.053 701.422C700.81 701.557 700.701 702.131 701.151 701.772ZM693.154 696.638C693.697 697.121 695.649 696.992 693.814 696.697C693.542 696.296 692.088 696.392 693.154 696.638ZM684.207 690.628C683.418 689.502 683.717 688.996 682.956 688.077C682.812 687.374 681.65 685.779 682.355 687.469C683 688.457 683.192 689.988 684.207 690.628ZM707.586 701.74C708.354 701.584 710.103 702.131 710.386 701.536C709.454 701.514 707.161 700.879 707.052 701.688L707.586 701.74ZM681.444 682.34C681.304 681.538 681.135 680.13 682.473 680.606C680.687 680.961 683.709 682.826 683.328 681.353C684.079 681.39 684.797 680.909 684.403 681.639C685.883 681.476 686.909 680.192 688.339 680.372C689.452 680.225 690.67 680.113 691.87 679.665C692.856 679.594 693.806 678.531 693.265 677.902C691.92 677.788 690.511 677.956 689.024 678.252C687.376 678.594 685.879 679.245 684.217 679.525C682.596 679.742 684.543 680.124 684.078 680.21C683.233 680.503 685.087 680.701 683.969 681.01C683.278 680.879 682.559 680.642 682.854 679.914C681.302 680.115 679.938 680.76 681.164 682.34L681.444 682.34ZM685.593 680.613C686.947 681.538 685.36 679.094 684.996 680.435C685.166 680.393 685.431 680.492 685.593 680.613ZM685.978 679.993C687.261 680.122 685.782 679.178 685.734 679.771L685.978 679.993ZM688.129 679.207C690.023 678.847 687.435 678.606 686.88 679.272C687.232 679.433 687.621 678.825 688.129 679.207ZM691.377 678.562C692.574 678.378 691.565 677.829 691.215 678.746C691.342 679.036 691.403 678.66 691.377 678.562ZM684.937 683.453C685.614 683.407 685.996 682.707 684.806 682.747C682.962 682.556 686.433 683.378 684.57 683.143C684.319 683.309 684.922 683.499 684.937 683.453ZM683.989 678.108C685.197 677.697 686.722 677.348 687.401 678.339C686.89 677.618 687.185 676.924 687.733 677.945C688.508 678.979 688.786 677.68 688.392 677.129C688.767 677.722 690.159 679.014 688.776 677.174C689.693 676.072 686.942 677.318 686.316 677.306C686.015 677.441 683.21 678.021 683.989 678.108ZM684.697 676.752C685.386 676.233 687.079 677.062 685.993 676.236C685.886 676.142 683.613 676.862 684.697 676.752ZM687.208 676.856C688.014 676.877 686.86 675.773 687.821 676.273C687.663 675.758 686.703 675.661 686.233 675.455C685.967 675.927 686.774 676.862 687.208 676.856ZM684.247 673.323C683.333 672.129 685.968 673.523 685.038 672.273C684.256 671.65 683.505 672.974 684.247 673.323ZM695.986 679.645C696.405 678.902 694.254 678.643 695.703 679.382C695.836 679.426 695.806 679.697 695.986 679.645Z" fill="black"/>
<defs>
<linearGradient id="paint0_linear_118_132" x1="1440" y1="-0.000124792" x2="-595.5" y2="974" gradientUnits="userSpaceOnUse">
<stop stop-color="#56CCF2"/>
<stop offset="1" stop-color="#2F80ED"/>
</linearGradient>
</defs>
</svg>
