<svg width="1536" height="900" viewBox="0 0 1536 900" fill="none" xmlns="http://www.w3.org/2000/svg">
<rect width="1440" height="700" transform="translate(0 100)" fill="url(#paint0_linear_113_1408)"/>
<circle cx="1086" cy="450" r="50" fill="white"/>
<path d="M1066.51 440.545H1070.15V452.716C1070.15 453.841 1069.9 454.818 1069.39 455.648C1068.89 456.477 1068.2 457.116 1067.31 457.565C1066.41 458.014 1065.38 458.239 1064.2 458.239C1063.14 458.239 1062.19 458.054 1061.33 457.685C1060.48 457.31 1059.8 456.741 1059.3 455.98C1058.8 455.213 1058.56 454.25 1058.56 453.091H1062.24C1062.25 453.551 1062.34 453.946 1062.52 454.276C1062.7 454.599 1062.95 454.849 1063.26 455.026C1063.58 455.196 1063.95 455.281 1064.38 455.281C1064.84 455.281 1065.22 455.185 1065.53 454.991C1065.85 454.793 1066.09 454.503 1066.26 454.122C1066.42 453.741 1066.51 453.273 1066.51 452.716V440.545ZM1076.87 458.247C1076.03 458.247 1075.29 458.102 1074.64 457.812C1073.98 457.517 1073.47 457.082 1073.09 456.509C1072.71 455.929 1072.52 455.207 1072.52 454.344C1072.52 453.616 1072.66 453.006 1072.92 452.511C1073.19 452.017 1073.55 451.619 1074.01 451.318C1074.47 451.017 1075 450.79 1075.58 450.636C1076.17 450.483 1076.79 450.375 1077.44 450.312C1078.2 450.233 1078.82 450.159 1079.28 450.091C1079.75 450.017 1080.09 449.909 1080.3 449.767C1080.51 449.625 1080.61 449.415 1080.61 449.136V449.085C1080.61 448.545 1080.44 448.128 1080.1 447.832C1079.76 447.537 1079.29 447.389 1078.67 447.389C1078.01 447.389 1077.49 447.534 1077.11 447.824C1076.72 448.108 1076.47 448.466 1076.34 448.898L1072.98 448.625C1073.15 447.83 1073.49 447.142 1073.99 446.562C1074.49 445.977 1075.13 445.528 1075.92 445.216C1076.72 444.898 1077.64 444.739 1078.68 444.739C1079.41 444.739 1080.11 444.824 1080.77 444.994C1081.44 445.165 1082.04 445.429 1082.55 445.787C1083.08 446.145 1083.49 446.605 1083.79 447.168C1084.09 447.724 1084.24 448.392 1084.24 449.17V458H1080.8V456.185H1080.7C1080.49 456.594 1080.2 456.955 1079.85 457.267C1079.5 457.574 1079.08 457.815 1078.58 457.991C1078.09 458.162 1077.52 458.247 1076.87 458.247ZM1077.91 455.741C1078.44 455.741 1078.91 455.636 1079.32 455.426C1079.73 455.21 1080.05 454.92 1080.29 454.557C1080.52 454.193 1080.64 453.781 1080.64 453.321V451.932C1080.52 452.006 1080.37 452.074 1080.17 452.136C1079.97 452.193 1079.76 452.247 1079.51 452.298C1079.27 452.344 1079.02 452.386 1078.78 452.426C1078.53 452.46 1078.31 452.491 1078.11 452.52C1077.69 452.582 1077.32 452.682 1077 452.818C1076.68 452.955 1076.43 453.139 1076.26 453.372C1076.08 453.599 1075.99 453.884 1075.99 454.224C1075.99 454.719 1076.17 455.097 1076.53 455.358C1076.89 455.614 1077.35 455.741 1077.91 455.741ZM1098.79 444.909L1094.22 458H1090.13L1085.55 444.909H1089.38L1092.1 454.276H1092.24L1094.95 444.909H1098.79ZM1104.03 458.247C1103.2 458.247 1102.45 458.102 1101.8 457.812C1101.15 457.517 1100.63 457.082 1100.25 456.509C1099.87 455.929 1099.69 455.207 1099.69 454.344C1099.69 453.616 1099.82 453.006 1100.09 452.511C1100.35 452.017 1100.72 451.619 1101.18 451.318C1101.64 451.017 1102.16 450.79 1102.75 450.636C1103.34 450.483 1103.96 450.375 1104.6 450.312C1105.37 450.233 1105.98 450.159 1106.45 450.091C1106.91 450.017 1107.25 449.909 1107.46 449.767C1107.67 449.625 1107.77 449.415 1107.77 449.136V449.085C1107.77 448.545 1107.6 448.128 1107.26 447.832C1106.93 447.537 1106.45 447.389 1105.83 447.389C1105.18 447.389 1104.66 447.534 1104.27 447.824C1103.89 448.108 1103.63 448.466 1103.5 448.898L1100.15 448.625C1100.32 447.83 1100.65 447.142 1101.15 446.562C1101.65 445.977 1102.3 445.528 1103.09 445.216C1103.88 444.898 1104.8 444.739 1105.85 444.739C1106.58 444.739 1107.27 444.824 1107.94 444.994C1108.61 445.165 1109.2 445.429 1109.72 445.787C1110.24 446.145 1110.65 446.605 1110.95 447.168C1111.25 447.724 1111.41 448.392 1111.41 449.17V458H1107.96V456.185H1107.86C1107.65 456.594 1107.37 456.955 1107.02 457.267C1106.66 457.574 1106.24 457.815 1105.75 457.991C1105.25 458.162 1104.68 458.247 1104.03 458.247ZM1105.07 455.741C1105.61 455.741 1106.08 455.636 1106.49 455.426C1106.9 455.21 1107.22 454.92 1107.45 454.557C1107.68 454.193 1107.8 453.781 1107.8 453.321V451.932C1107.69 452.006 1107.53 452.074 1107.33 452.136C1107.14 452.193 1106.92 452.247 1106.68 452.298C1106.43 452.344 1106.19 452.386 1105.94 452.426C1105.7 452.46 1105.48 452.491 1105.28 452.52C1104.85 452.582 1104.48 452.682 1104.16 452.818C1103.84 452.955 1103.6 453.139 1103.42 453.372C1103.24 453.599 1103.16 453.884 1103.16 454.224C1103.16 454.719 1103.33 455.097 1103.69 455.358C1104.06 455.614 1104.52 455.741 1105.07 455.741Z" fill="#E76F00"/>
<circle cx="1086" cy="450" r="148.5" stroke="white" stroke-width="3"/>
<circle cx="1086" cy="450" r="148.5" stroke="white" stroke-width="3"/>
<circle cx="1192" cy="550" r="49" fill="#215732" stroke="white" stroke-width="2"/>
<path d="M1206.75 533.868C1206.25 535.078 1205.6 536.224 1204.83 537.282C1201.44 533.896 1196.85 531.993 1192.06 531.993C1182.15 531.993 1174 540.151 1174 550.068C1174 552.517 1174.5 554.94 1175.46 557.191C1176.43 559.442 1177.84 561.474 1179.61 563.164L1180.28 563.754C1183.53 566.499 1187.65 568.005 1191.91 568.007C1201.33 568.007 1209.24 560.627 1209.91 551.221C1210.41 546.617 1209.06 540.794 1206.75 533.868ZM1182.18 563.267C1182.03 563.445 1181.85 563.589 1181.64 563.688C1181.43 563.787 1181.2 563.839 1180.97 563.839C1180.13 563.839 1179.43 563.14 1179.43 562.291C1179.43 561.442 1180.13 560.744 1180.97 560.744C1181.33 560.744 1181.67 560.866 1181.95 561.091C1182.61 561.625 1182.71 562.605 1182.18 563.267ZM1206.68 557.856C1202.22 563.796 1192.7 561.794 1186.6 562.08C1186.6 562.08 1185.52 562.146 1184.43 562.324C1184.43 562.324 1184.84 562.151 1185.37 561.949C1189.65 560.458 1191.68 560.167 1194.28 558.831C1199.18 556.337 1204.03 550.879 1205.04 545.201C1203.17 550.663 1197.51 555.357 1192.36 557.265C1188.83 558.569 1182.45 559.834 1182.45 559.834L1182.19 559.698C1177.85 557.584 1177.71 548.174 1185.61 545.135C1189.07 543.803 1192.37 544.535 1196.11 543.644C1200.09 542.697 1204.7 539.705 1206.58 535.804C1208.68 542.045 1211.21 551.817 1206.68 557.856Z" fill="#77BC1F"/>
<circle cx="1086" cy="450" r="248.5" stroke="white" stroke-width="3"/>
<circle cx="1086" cy="450" r="248.5" stroke="white" stroke-width="3"/>
<circle cx="1143" cy="212" r="49" fill="#FCEA2B" stroke="white" stroke-width="2"/>
<path d="M1134.09 216.796L1135.43 221.136C1135.73 222.122 1135.85 222.809 1135.8 223.201C1136.53 221.242 1137.04 219.107 1137.33 216.796H1138.94C1138.25 220.559 1137.34 223.292 1136.21 224.998C1135.33 226.312 1134.36 226.969 1133.31 226.969C1133.03 226.969 1132.68 226.884 1132.27 226.716V225.809C1132.47 225.839 1132.71 225.854 1132.98 225.854C1133.47 225.854 1133.86 225.718 1134.16 225.447C1134.52 225.116 1134.71 224.744 1134.71 224.332C1134.71 224.05 1134.56 223.473 1134.28 222.599L1132.42 216.796H1134.09ZM1123.86 214.129L1126.3 221.604H1126.32L1128.78 214.129H1130.8C1131.24 217.836 1131.5 221.228 1131.58 224.302H1129.88C1129.82 221.428 1129.66 218.726 1129.39 216.194H1129.37L1126.79 224.302H1125.49L1122.92 216.194H1122.91C1122.72 218.625 1122.6 221.328 1122.55 224.302H1121C1121.1 220.685 1121.35 217.294 1121.75 214.129H1123.86Z" fill="#00758F"/>
<path d="M1151.29 213.978C1153.93 213.978 1155.24 215.661 1155.24 219.027C1155.24 220.856 1154.85 222.237 1154.06 223.171C1153.91 223.341 1153.76 223.489 1153.59 223.625L1155.46 224.547L1155.45 224.547L1154.79 225.691L1152.36 224.273C1151.96 224.393 1151.52 224.452 1151.04 224.452C1149.74 224.452 1148.78 224.075 1148.14 223.322C1147.44 222.489 1147.08 221.177 1147.08 219.389C1147.08 217.57 1147.48 216.194 1148.27 215.259C1148.99 214.405 1150 213.978 1151.29 213.978ZM1143.22 213.993C1144.17 213.993 1145.02 214.245 1145.79 214.747L1145.4 215.62C1144.74 215.339 1144.09 215.198 1143.45 215.198C1142.93 215.198 1142.53 215.324 1142.25 215.576C1141.97 215.826 1141.79 216.148 1141.79 216.54C1141.79 217.142 1142.22 217.665 1143.02 218.106C1143.27 218.248 1143.53 218.392 1143.79 218.537L1143.85 218.57L1143.88 218.587L1143.94 218.62L1143.97 218.637L1144.03 218.67C1144.63 219.009 1145.19 219.332 1145.19 219.332C1145.98 219.894 1146.38 220.494 1146.38 221.482C1146.38 222.345 1146.06 223.053 1145.43 223.607C1144.8 224.159 1143.96 224.435 1142.89 224.435C1141.9 224.435 1140.94 224.117 1140.01 223.486L1140.45 222.612C1141.25 223.014 1141.97 223.214 1142.62 223.214C1143.23 223.214 1143.71 223.078 1144.06 222.808C1144.4 222.537 1144.61 222.159 1144.61 221.679C1144.61 221.075 1144.19 220.558 1143.42 220.125C1143.18 219.992 1142.94 219.857 1142.7 219.721L1142.64 219.688C1142.53 219.627 1142.42 219.565 1142.31 219.504L1142.26 219.471C1141.74 219.175 1141.29 218.916 1141.29 218.916C1140.52 218.352 1140.13 217.748 1140.13 216.751C1140.13 215.927 1140.42 215.261 1140.99 214.754C1141.57 214.246 1142.31 213.993 1143.22 213.993ZM1158.34 214.129V223.05H1161.54V224.302H1156.72V214.129L1158.34 214.129ZM1163.32 223.054V223.266H1162.97V224.301H1162.7V223.266H1162.33V223.054H1163.32ZM1163.97 223.054L1164.31 223.904L1164.62 223.054H1165V224.301H1164.74V223.352L1164.39 224.301H1164.21L1163.86 223.352H1163.84V224.301H1163.6V223.054H1163.97ZM1151.13 215.229C1149.57 215.229 1148.8 216.511 1148.8 219.072C1148.8 220.54 1149 221.604 1149.41 222.267C1149.8 222.88 1150.39 223.187 1151.2 223.187C1152.76 223.187 1153.53 221.895 1153.53 219.313C1153.53 217.866 1153.33 216.811 1152.92 216.148C1152.53 215.535 1151.94 215.229 1151.13 215.229" fill="#F29111"/>
<path d="M1147.06 197.63C1147.57 196.365 1149.37 197.323 1150.07 197.765C1150.24 197.876 1150.44 198.11 1150.64 198.196C1150.94 198.208 1151.25 198.232 1151.56 198.245C1152.13 198.38 1152.67 198.491 1153.12 198.749C1155.23 199.991 1156.6 201.256 1157.87 203.346C1158.14 203.789 1158.27 204.268 1158.49 204.747C1158.8 205.461 1159.14 206.211 1159.5 206.886C1159.66 207.206 1159.78 207.562 1160 207.832C1160.09 207.956 1160.33 207.992 1160.48 208.066C1160.88 208.276 1161.37 208.435 1161.75 208.68C1162.46 209.124 1163.15 209.652 1163.77 210.193C1164.01 210.401 1164.17 210.697 1164.39 210.917V211.029C1164.19 211.089 1163.99 211.151 1163.8 211.201C1163.37 211.311 1162.99 211.286 1162.57 211.396C1162.32 211.471 1162 211.569 1161.73 211.594L1161.75 211.619C1161.91 212.073 1162.77 212.442 1163.16 212.713C1163.64 213.057 1164.08 213.474 1164.44 213.954C1164.56 214.076 1164.68 214.188 1164.8 214.309C1164.89 214.433 1164.91 214.593 1165 214.703V214.74C1164.9 214.707 1164.84 214.642 1164.77 214.575L1164.73 214.534C1164.69 214.494 1164.65 214.454 1164.61 214.421C1164.34 214.237 1164.07 214.015 1163.8 213.844C1163.33 213.548 1162.79 213.377 1162.32 213.081C1162.05 212.909 1161.79 212.713 1161.53 212.516C1161.3 212.344 1161.04 212.012 1160.89 211.766C1160.81 211.631 1160.8 211.471 1160.7 211.373C1160.72 211.209 1160.87 211.16 1161.02 211.12L1161.05 211.111C1161.1 211.097 1161.16 211.083 1161.2 211.065C1161.84 210.795 1162.6 210.697 1163.58 210.721C1163.54 210.475 1162.93 210.168 1162.73 210.02C1162.34 209.737 1161.92 209.442 1161.51 209.184C1161.29 209.049 1160.91 208.951 1160.66 208.84C1160.33 208.705 1159.6 208.57 1159.41 208.312C1159.1 207.906 1158.88 207.421 1158.66 206.932L1158.6 206.798L1158.54 206.665C1158.28 206.075 1157.97 205.461 1157.71 204.857C1157.57 204.563 1157.51 204.305 1157.36 204.022C1156.47 202.289 1155.15 200.839 1153.54 199.818C1153.01 199.486 1152.43 199.179 1151.78 198.97C1151.41 198.859 1150.97 198.921 1150.58 198.835H1150.32C1150.1 198.773 1149.91 198.54 1149.74 198.417C1149.36 198.159 1148.98 197.986 1148.53 197.802C1148.37 197.728 1147.92 197.557 1147.76 197.692C1147.66 197.717 1147.61 197.754 1147.58 197.852C1147.49 197.999 1147.57 198.221 1147.63 198.356C1147.82 198.749 1148.07 198.982 1148.31 199.314C1148.52 199.609 1148.77 199.941 1148.92 200.261C1149.24 200.949 1149.39 201.711 1149.68 202.399C1149.79 202.658 1149.96 202.953 1150.12 203.186C1150.26 203.371 1150.5 203.505 1150.58 203.74C1150.72 203.985 1150.35 204.797 1150.27 205.054C1149.95 206.062 1150.01 207.464 1150.38 208.337L1150.4 208.383L1150.42 208.43C1150.55 208.75 1150.7 209.095 1151.05 209.184C1151.08 209.16 1151.05 209.173 1151.1 209.16C1151.19 208.483 1151.21 207.832 1151.45 207.303C1151.58 206.972 1151.85 206.738 1152.03 206.468C1152.16 206.542 1152.16 206.764 1152.23 206.91C1152.39 207.291 1152.56 207.709 1152.76 208.091C1153.16 208.877 1153.61 209.64 1154.13 210.328C1154.3 210.574 1154.55 210.844 1154.77 211.065C1154.86 211.151 1154.97 211.201 1155.05 211.311H1155.07V211.348C1154.7 211.212 1154.47 210.832 1154.18 210.61C1153.63 210.192 1152.97 209.565 1152.58 208.964C1152.43 208.618 1152.25 208.287 1152.08 207.944V207.919C1152.01 208.017 1152.03 208.114 1152 208.263C1151.84 208.877 1151.96 209.578 1151.41 209.799C1150.78 210.057 1150.32 209.381 1150.12 209.074C1149.5 208.054 1149.32 206.333 1149.77 204.944C1149.86 204.637 1149.88 204.268 1150.05 204.022C1150.01 203.8 1149.84 203.74 1149.74 203.604C1149.57 203.371 1149.42 203.101 1149.29 202.842C1149.03 202.338 1148.85 201.736 1148.65 201.195C1148.57 200.974 1148.54 200.752 1148.45 200.543C1148.31 200.224 1148.04 199.904 1147.83 199.622C1147.55 199.216 1146.73 198.43 1147.06 197.63ZM1151.08 200.039C1151.11 200.071 1151.15 200.1 1151.19 200.128L1151.24 200.162C1151.31 200.208 1151.37 200.256 1151.41 200.321C1151.47 200.408 1151.48 200.493 1151.56 200.58C1151.56 200.875 1151.47 201.071 1151.3 201.194C1151.3 201.194 1151.29 201.207 1151.27 201.219C1151.18 201.022 1151.09 200.826 1150.99 200.629C1150.87 200.457 1150.7 200.321 1150.6 200.125H1150.57V200.1C1150.72 200.064 1150.87 200.039 1151.08 200.039Z" fill="#00758F"/>
<circle cx="1086" cy="450" r="348.5" stroke="white" stroke-width="3"/>
<circle cx="1086" cy="450" r="348.5" stroke="white" stroke-width="3"/>
<circle cx="776" cy="300" r="49" fill="#007D9E" stroke="white" stroke-width="2"/>
<path d="M776 303.206C777.771 303.206 779.206 301.771 779.206 300C779.206 298.229 777.771 296.794 776 296.794C774.229 296.794 772.794 298.229 772.794 300C772.794 301.771 774.229 303.206 776 303.206Z" fill="#61DAFB"/>
<path d="M788.178 294.712C787.559 294.487 786.912 294.262 786.237 294.066C786.406 293.391 786.547 292.716 786.659 292.069C787.25 288.356 786.603 285.741 784.803 284.728C784.269 284.419 783.678 284.278 783.003 284.278C781.034 284.278 778.531 285.741 776 288.187C773.469 285.741 770.966 284.278 768.997 284.278C768.322 284.278 767.731 284.419 767.197 284.728C765.397 285.769 764.75 288.384 765.341 292.069C765.453 292.716 765.594 293.391 765.762 294.066C765.087 294.262 764.441 294.459 763.822 294.712C760.306 296.062 758.394 297.919 758.394 300C758.394 302.081 760.334 303.937 763.822 305.287C764.441 305.512 765.087 305.737 765.762 305.934C765.594 306.609 765.453 307.284 765.341 307.931C764.75 311.644 765.397 314.259 767.197 315.272C767.731 315.581 768.322 315.722 768.997 315.722C770.994 315.722 773.497 314.259 776 311.812C778.531 314.259 781.034 315.722 783.003 315.722C783.678 315.722 784.269 315.581 784.803 315.272C786.603 314.231 787.25 311.616 786.659 307.931C786.547 307.284 786.406 306.609 786.237 305.934C786.912 305.737 787.559 305.541 788.178 305.287C791.694 303.937 793.606 302.081 793.606 300C793.606 297.919 791.694 296.062 788.178 294.712ZM784.016 286.134C785.169 286.809 785.562 288.891 785.084 291.844C785 292.434 784.859 293.053 784.691 293.7C783.228 293.362 781.681 293.137 780.05 292.997C779.094 291.647 778.109 290.437 777.125 289.341C779.206 287.287 781.316 285.881 783.031 285.881C783.397 285.881 783.734 285.966 784.016 286.134ZM780.866 302.812C780.359 303.712 779.769 304.612 779.15 305.512C778.109 305.597 777.069 305.625 776 305.625C774.903 305.625 773.862 305.597 772.85 305.512C772.231 304.612 771.669 303.712 771.162 302.812C770.628 301.884 770.122 300.928 769.672 300C770.122 299.072 770.628 298.116 771.162 297.187C771.669 296.287 772.259 295.387 772.878 294.487C773.919 294.403 774.959 294.375 776.028 294.375C777.125 294.375 778.166 294.403 779.178 294.487C779.797 295.387 780.359 296.287 780.866 297.187C781.4 298.116 781.906 299.072 782.356 300C781.878 300.928 781.4 301.856 780.866 302.812ZM783.2 301.884C783.622 302.869 783.959 303.825 784.269 304.781C783.312 305.006 782.3 305.175 781.231 305.316C781.569 304.781 781.934 304.219 782.244 303.628C782.581 303.037 782.891 302.447 783.2 301.884ZM776 309.506C775.325 308.775 774.678 307.987 774.059 307.172C774.706 307.2 775.353 307.228 776 307.228C776.647 307.228 777.294 307.2 777.941 307.172C777.322 307.987 776.675 308.775 776 309.506ZM770.769 305.287C769.7 305.147 768.687 304.978 767.731 304.753C768.041 303.825 768.378 302.841 768.8 301.856C769.109 302.419 769.419 303.009 769.756 303.572C770.094 304.191 770.431 304.725 770.769 305.287ZM768.8 298.116C768.378 297.131 768.041 296.175 767.731 295.219C768.687 294.994 769.7 294.825 770.769 294.684C770.431 295.219 770.066 295.781 769.756 296.372C769.419 296.962 769.109 297.553 768.8 298.116ZM776 290.494C776.675 291.225 777.322 292.012 777.941 292.828C777.294 292.8 776.647 292.772 776 292.772C775.353 292.772 774.706 292.8 774.059 292.828C774.678 292.012 775.325 291.225 776 290.494ZM782.244 296.4L781.231 294.712C782.3 294.853 783.312 295.022 784.269 295.247C783.959 296.175 783.622 297.159 783.2 298.144C782.891 297.553 782.581 296.962 782.244 296.4ZM766.916 291.844C766.437 288.891 766.831 286.809 767.984 286.134C768.266 285.966 768.603 285.881 768.969 285.881C770.656 285.881 772.766 287.259 774.875 289.341C773.891 290.409 772.906 291.647 771.95 292.997C770.319 293.137 768.772 293.391 767.309 293.7C767.141 293.053 767.028 292.434 766.916 291.844ZM759.969 300C759.969 298.678 761.572 297.272 764.384 296.231C764.947 296.006 765.566 295.809 766.184 295.641C766.634 297.047 767.197 298.537 767.872 300.028C767.197 301.519 766.606 302.981 766.184 304.387C762.303 303.262 759.969 301.575 759.969 300ZM767.984 313.866C766.831 313.191 766.437 311.109 766.916 308.156C767 307.566 767.141 306.947 767.309 306.3C768.772 306.637 770.319 306.862 771.95 307.003C772.906 308.353 773.891 309.562 774.875 310.659C772.794 312.712 770.684 314.119 768.969 314.119C768.603 314.119 768.266 314.034 767.984 313.866ZM785.084 308.156C785.562 311.109 785.169 313.191 784.016 313.866C783.734 314.034 783.397 314.119 783.031 314.119C781.344 314.119 779.234 312.741 777.125 310.659C778.109 309.591 779.094 308.353 780.05 307.003C781.681 306.862 783.228 306.609 784.691 306.3C784.859 306.947 784.972 307.566 785.084 308.156ZM787.616 303.769C787.053 303.994 786.434 304.191 785.816 304.359C785.366 302.953 784.803 301.462 784.128 299.972C784.803 298.481 785.394 297.019 785.816 295.612C789.697 296.737 792.031 298.425 792.031 300C792.031 301.322 790.4 302.728 787.616 303.769Z" fill="#61DAFB"/>
<circle cx="1086" cy="450" r="448.5" stroke="white" stroke-width="3"/>
<circle cx="1086" cy="450" r="448.5" stroke="white" stroke-width="3"/>
<circle cx="698" cy="688" r="49" fill="white" stroke="white" stroke-width="2"/>
<path d="M691.609 695.83C691.609 695.83 689.753 696.628 692.93 696.898C696.779 697.223 698.746 697.177 702.987 696.583C702.987 696.583 704.102 697.1 705.659 697.548C696.152 700.563 684.141 697.374 691.609 695.83ZM690.447 691.895C690.447 691.895 688.366 693.035 691.545 693.279C695.656 693.592 698.903 693.618 704.521 692.818C704.521 692.818 705.298 693.401 706.52 693.719C695.024 696.207 682.22 693.916 690.447 691.895Z" fill="#5382A1"/>
<path d="M700.242 685.221C702.585 687.217 699.626 689.013 699.626 689.013C699.626 689.013 705.575 686.741 702.843 683.895C700.291 681.242 698.335 679.924 708.928 675.378C708.928 675.378 692.3 678.451 700.242 685.221Z" fill="#E76F00"/>
<path d="M712.817 698.74C712.817 698.74 714.19 699.577 711.304 700.225C705.816 701.455 688.462 701.826 683.641 700.274C681.908 699.716 685.158 698.942 686.18 698.779C687.246 698.608 687.856 698.64 687.856 698.64C685.928 697.636 675.399 700.613 682.507 701.465C701.893 703.791 717.845 700.418 712.817 698.74ZM692.502 687.819C692.502 687.819 683.674 689.37 689.376 689.933C691.783 690.172 696.582 690.118 701.052 689.841C704.705 689.613 708.373 689.128 708.373 689.128C708.373 689.128 707.085 689.536 706.153 690.007C697.189 691.751 679.872 690.94 684.858 689.156C689.074 687.648 692.502 687.819 692.502 687.819ZM708.337 694.368C717.449 690.864 713.236 687.498 710.295 687.951C709.574 688.062 709.253 688.158 709.253 688.158C709.253 688.158 709.521 687.848 710.032 687.714C715.849 686.201 720.324 692.177 708.154 694.544C708.154 694.544 708.295 694.451 708.337 694.368Z" fill="#5382A1"/>
<path d="M702.843 668.039C702.843 668.039 707.89 671.774 698.057 677.517C690.172 682.125 696.259 684.752 698.053 687.753C693.451 684.681 690.073 681.976 692.339 679.459C695.665 675.763 704.879 673.972 702.843 668.039Z" fill="#E76F00"/>
<path d="M693.397 703.861C702.144 704.275 715.575 703.631 715.893 700.569C715.893 700.569 715.282 701.73 708.665 702.652C701.199 703.691 691.992 703.57 686.53 702.904C686.531 702.904 687.648 703.588 693.397 703.861Z" fill="#5382A1"/>
<defs>
<linearGradient id="paint0_linear_113_1408" x1="1440" y1="-0.000124792" x2="-595.5" y2="974" gradientUnits="userSpaceOnUse">
<stop stop-color="#56CCF2"/>
<stop offset="1" stop-color="#2F80ED"/>
</linearGradient>
</defs>
</svg>
