<svg width="1536" height="900" viewBox="0 0 1536 900" fill="none" xmlns="http://www.w3.org/2000/svg">
<rect width="1440" height="700" transform="translate(0 100)" fill="url(#paint0_linear_113_1408)"/>
<circle cx="1086" cy="450" r="50" fill="white"/>
<path d="M1051.52 440.545H1056.07L1060.88 452.273H1061.08L1065.89 440.545H1070.44V458H1066.86V446.639H1066.71L1062.2 457.915H1059.76L1055.24 446.597H1055.1V458H1051.52V440.545ZM1118.52 440.545V458H1115.34L1107.74 447.014H1107.61V458H1103.92V440.545H1107.16L1114.7 451.523H1114.85V440.545H1118.52Z" fill="#4DB33D"/>
<path d="M1073.48 458V440.545H1085.24V443.588H1077.17V447.747H1084.63V450.79H1077.17V454.957H1085.27V458H1073.48Z" fill="#363636"/>
<path d="M1088.17 458V440.545H1095.06C1096.38 440.545 1097.5 440.781 1098.43 441.253C1099.37 441.719 1100.09 442.381 1100.57 443.239C1101.07 444.091 1101.32 445.094 1101.32 446.247C1101.32 447.406 1101.07 448.403 1100.57 449.239C1100.07 450.068 1099.34 450.705 1098.39 451.148C1097.45 451.591 1096.31 451.812 1094.97 451.812H1090.36V448.847H1094.37C1095.07 448.847 1095.66 448.75 1096.12 448.557C1096.59 448.364 1096.94 448.074 1097.16 447.688C1097.4 447.301 1097.51 446.821 1097.51 446.247C1097.51 445.668 1097.4 445.179 1097.16 444.781C1096.94 444.384 1096.59 444.082 1096.12 443.878C1095.65 443.668 1095.06 443.562 1094.35 443.562H1091.86V458H1088.17ZM1097.6 450.057L1101.94 458H1097.86L1093.62 450.057H1097.6Z" fill="#61DBFB"/>
<circle cx="1086" cy="450" r="148.5" stroke="white" stroke-width="3"/>
<circle cx="1086" cy="450" r="148.5" stroke="white" stroke-width="3"/>
<circle cx="1192" cy="550" r="49" fill="#215732" stroke="white" stroke-width="2"/>
<path fill-rule="evenodd" clip-rule="evenodd" d="M1199.76 544.041C1200.21 545.347 1200.54 546.68 1200.64 548.062C1200.78 549.776 1200.72 551.478 1200.35 553.164C1200.34 553.21 1200.32 553.254 1200.31 553.299C1200.2 553.299 1200.08 553.285 1199.97 553.302C1199.03 553.449 1198.1 553.602 1197.16 553.753C1196.19 553.91 1195.23 554.061 1194.26 554.228C1193.92 554.287 1193.5 554.216 1193.36 554.689C1193.35 554.702 1193.31 554.705 1193.29 554.712L1193.34 551.885L1193.29 545.064L1193.74 544.987C1194.48 544.866 1195.22 544.744 1195.95 544.627C1196.83 544.487 1197.71 544.351 1198.59 544.215C1198.98 544.154 1199.37 544.099 1199.76 544.041Z" fill="#439934"/>
<path fill-rule="evenodd" clip-rule="evenodd" d="M1192.36 562.953C1191.89 562.544 1191.39 562.153 1190.94 561.724C1188.49 559.411 1186.69 556.69 1185.81 553.408C1185.57 552.505 1185.4 551.587 1185.35 550.654C1185.32 550.001 1185.26 549.342 1185.31 548.692C1185.43 546.964 1185.68 545.253 1186.19 543.589L1186.22 543.55C1186.27 543.615 1186.34 543.673 1186.36 543.747C1186.86 545.204 1187.35 546.662 1187.84 548.121C1189.37 552.705 1190.9 557.291 1192.44 561.874C1192.47 561.964 1192.55 562.037 1192.61 562.118L1192.36 562.953Z" fill="#45A538"/>
<path fill-rule="evenodd" clip-rule="evenodd" d="M1199.76 544.041C1199.37 544.099 1198.98 544.154 1198.59 544.214C1197.71 544.35 1196.83 544.486 1195.95 544.626C1195.21 544.743 1194.48 544.866 1193.74 544.986L1193.29 545.064L1193.29 544.77C1193.27 544.528 1193.25 544.287 1193.24 544.045C1193.22 542.505 1193.21 540.964 1193.19 539.423C1193.18 538.459 1193.16 537.495 1193.14 536.531C1193.13 535.931 1193.12 535.332 1193.09 534.734C1193.08 534.412 1193.03 534.093 1193 533.771C1192.99 533.586 1193.01 533.4 1193.01 533.215C1193.24 533.66 1193.47 534.108 1193.7 534.55C1194.08 535.249 1194.67 535.764 1195.21 536.325C1197.32 538.545 1198.82 541.126 1199.76 544.041Z" fill="#46A037"/>
<path fill-rule="evenodd" clip-rule="evenodd" d="M1193.29 554.712C1193.31 554.704 1193.35 554.702 1193.36 554.689C1193.5 554.216 1193.92 554.287 1194.26 554.228C1195.23 554.061 1196.19 553.91 1197.16 553.753C1198.1 553.602 1199.03 553.449 1199.97 553.302C1200.08 553.285 1200.19 553.299 1200.31 553.299C1200.13 553.923 1200 554.561 1199.77 555.168C1199.52 555.857 1199.22 556.529 1198.89 557.188C1198.41 558.171 1197.81 559.093 1197.11 559.934C1196.57 560.583 1195.96 561.183 1195.36 561.776C1195.03 562.103 1194.64 562.37 1194.27 562.665L1194.18 562.6L1193.83 562.308L1193.48 561.534C1193.24 560.631 1193.11 559.702 1193.09 558.767L1193.1 558.609L1193.14 557.927C1193.16 557.694 1193.18 557.461 1193.19 557.228C1193.23 556.389 1193.26 555.55 1193.29 554.712Z" fill="#409433"/>
<path fill-rule="evenodd" clip-rule="evenodd" d="M1193.29 554.712C1193.26 555.55 1193.23 556.389 1193.19 557.228C1193.18 557.462 1193.16 557.694 1193.14 557.927L1192.93 558.008C1192.45 556.601 1191.97 555.21 1191.5 553.814C1190.73 551.505 1189.97 549.193 1189.19 546.883C1188.57 545.019 1187.94 543.157 1187.31 541.296C1187.28 541.209 1187.2 541.141 1187.14 541.064L1188.51 538.532C1188.56 538.614 1188.62 538.691 1188.65 538.779C1189.29 540.664 1189.93 542.55 1190.56 544.437C1191.38 546.892 1192.19 549.35 1193.01 551.805C1193.04 551.903 1193.1 551.994 1193.15 552.104L1193.34 551.885L1193.29 554.712Z" fill="#4FAA41"/>
<path fill-rule="evenodd" clip-rule="evenodd" d="M1187.14 541.064C1187.2 541.141 1187.28 541.209 1187.31 541.296C1187.94 543.157 1188.57 545.02 1189.2 546.884C1189.97 549.193 1190.73 551.506 1191.51 553.814C1191.97 555.21 1192.45 556.602 1192.93 558.009L1193.14 557.927L1193.1 558.61L1193.05 558.767C1192.98 559.514 1192.91 560.263 1192.82 561.008C1192.78 561.381 1192.68 561.748 1192.61 562.118C1192.55 562.037 1192.47 561.964 1192.44 561.874C1190.9 557.291 1189.37 552.706 1187.84 548.121C1187.35 546.662 1186.86 545.205 1186.36 543.748C1186.34 543.674 1186.27 543.616 1186.22 543.55L1187.14 541.064Z" fill="#4AA73C"/>
<path fill-rule="evenodd" clip-rule="evenodd" d="M1193.34 551.885L1193.15 552.104C1193.1 551.994 1193.04 551.904 1193.01 551.806C1192.19 549.35 1191.38 546.893 1190.56 544.438C1189.93 542.55 1189.29 540.664 1188.65 538.779C1188.62 538.691 1188.56 538.614 1188.51 538.532L1190.22 536.292C1190.27 536.364 1190.35 536.428 1190.37 536.508C1190.85 537.892 1191.32 539.278 1191.78 540.665C1192.22 541.959 1192.65 543.256 1193.09 544.549C1193.12 544.636 1193.22 544.697 1193.29 544.771L1193.29 545.064C1193.31 547.338 1193.32 549.611 1193.34 551.885Z" fill="#57AE47"/>
<path fill-rule="evenodd" clip-rule="evenodd" d="M1193.29 544.77C1193.22 544.697 1193.12 544.635 1193.09 544.549C1192.65 543.256 1192.22 541.959 1191.78 540.664C1191.32 539.277 1190.85 537.892 1190.38 536.508C1190.35 536.427 1190.27 536.363 1190.22 536.291C1190.77 535.749 1191.31 535.187 1191.88 534.67C1192.4 534.211 1192.81 533.718 1192.83 532.992C1192.83 532.962 1192.84 532.932 1192.87 532.847L1193.01 533.214C1193.01 533.4 1192.99 533.586 1193.01 533.771C1193.03 534.093 1193.08 534.412 1193.09 534.734C1193.12 535.332 1193.13 535.931 1193.14 536.53C1193.16 537.495 1193.18 538.459 1193.19 539.423C1193.21 540.964 1193.22 542.504 1193.24 544.045C1193.25 544.287 1193.27 544.528 1193.29 544.77Z" fill="#60B24F"/>
<path fill-rule="evenodd" clip-rule="evenodd" d="M1192.61 562.118C1192.68 561.748 1192.78 561.381 1192.82 561.007C1192.91 560.262 1192.98 559.513 1193.05 558.766L1193.07 558.764L1193.09 558.767C1193.11 559.701 1193.24 560.63 1193.48 561.534C1193.43 561.599 1193.36 561.657 1193.34 561.731C1193.13 562.307 1192.94 562.888 1192.73 563.465C1192.7 563.544 1192.63 563.605 1192.57 563.674L1192.36 562.953L1192.61 562.118Z" fill="#A9AA88"/>
<path fill-rule="evenodd" clip-rule="evenodd" d="M1192.57 563.675C1192.63 563.606 1192.71 563.544 1192.73 563.466C1192.94 562.889 1193.13 562.308 1193.34 561.731C1193.36 561.658 1193.43 561.599 1193.48 561.534L1193.83 562.309C1193.76 562.408 1193.67 562.497 1193.63 562.607L1192.95 564.592C1192.93 564.672 1192.83 564.728 1192.77 564.796L1192.57 563.675Z" fill="#B6B598"/>
<path fill-rule="evenodd" clip-rule="evenodd" d="M1192.77 564.795C1192.83 564.728 1192.93 564.672 1192.95 564.592L1193.63 562.607C1193.67 562.497 1193.76 562.407 1193.83 562.308L1194.18 562.6C1194.01 562.763 1193.92 562.952 1193.97 563.19L1193.87 563.53C1193.82 563.588 1193.75 563.638 1193.73 563.705C1193.5 564.381 1193.27 565.06 1193.03 565.736C1193 565.822 1192.92 565.889 1192.86 565.965C1192.83 565.575 1192.8 565.185 1192.77 564.795Z" fill="#C2C1A7"/>
<path fill-rule="evenodd" clip-rule="evenodd" d="M1192.86 565.965C1192.92 565.889 1193 565.822 1193.03 565.736C1193.27 565.061 1193.5 564.381 1193.73 563.705C1193.76 563.639 1193.82 563.588 1193.87 563.53L1193.73 565.089C1193.69 565.133 1193.63 565.172 1193.62 565.223C1193.45 565.677 1193.3 566.134 1193.14 566.588C1193.11 566.682 1193.04 566.765 1192.99 566.852C1192.95 566.794 1192.87 566.738 1192.86 566.677C1192.85 566.44 1192.86 566.202 1192.86 565.965Z" fill="#CECDB7"/>
<path fill-rule="evenodd" clip-rule="evenodd" d="M1192.99 566.852C1193.04 566.765 1193.11 566.682 1193.14 566.588C1193.3 566.135 1193.45 565.677 1193.62 565.223C1193.63 565.172 1193.69 565.134 1193.73 565.089L1193.73 566.113L1193.39 566.991L1192.99 566.852Z" fill="#DBDAC7"/>
<path fill-rule="evenodd" clip-rule="evenodd" d="M1193.39 566.992L1193.73 566.113L1193.8 567.153L1193.39 566.992Z" fill="#EBE9DC"/>
<path fill-rule="evenodd" clip-rule="evenodd" d="M1193.97 563.19C1193.92 562.952 1194.01 562.763 1194.18 562.6L1194.27 562.665L1193.97 563.19Z" fill="#CECDB7"/>
<path fill-rule="evenodd" clip-rule="evenodd" d="M1193.09 558.767L1193.07 558.764L1193.05 558.767L1193.1 558.61L1193.09 558.767Z" fill="#4FAA41"/>
<circle cx="1086" cy="450" r="248.5" stroke="white" stroke-width="3"/>
<circle cx="1086" cy="450" r="248.5" stroke="white" stroke-width="3"/>
<circle cx="1143" cy="212" r="49" fill="black" stroke="white" stroke-width="2"/>
<path d="M1155.74 204.087C1156.12 203.586 1156.72 203.292 1157.35 203.292H1157.86L1151.27 211.907L1158 220.704H1157.49C1157.18 220.705 1156.87 220.633 1156.59 220.495C1156.31 220.357 1156.07 220.157 1155.88 219.909L1150.52 212.895L1145.15 219.909C1144.96 220.157 1144.72 220.357 1144.44 220.495C1144.16 220.633 1143.85 220.704 1143.54 220.704H1143.03L1149.76 211.907L1143.17 203.292H1143.68C1144.31 203.292 1144.91 203.586 1145.29 204.087L1150.51 210.918L1155.74 204.087Z" fill="white"/>
<path fill-rule="evenodd" clip-rule="evenodd" d="M1133.34 219.719C1136.23 220.772 1139.25 219.578 1140.78 217.249C1141.08 216.791 1141.58 216.502 1142.13 216.502H1142.51C1141.1 220.157 1136.93 222.286 1132.96 220.859C1129.93 219.767 1128 216.769 1128 213.544V210.2C1128 209.154 1128.22 208.119 1128.65 207.163C1129.07 206.206 1129.69 205.349 1130.46 204.646C1131.24 203.942 1132.15 203.409 1133.14 203.078C1134.14 202.748 1135.19 202.629 1136.23 202.729C1140.12 203.093 1143.01 206.513 1143.01 210.419V212.9H1129.2V213.566C1129.2 216.269 1130.81 218.794 1133.34 219.719ZM1135.5 203.894C1133.83 203.897 1132.23 204.562 1131.05 205.744C1129.87 206.925 1129.2 208.526 1129.2 210.197V211.7H1141.81V210.2C1141.81 208.529 1141.14 206.926 1139.96 205.744C1138.78 204.562 1137.18 203.897 1135.51 203.894" fill="white"/>
<circle cx="1086" cy="450" r="348.5" stroke="white" stroke-width="3"/>
<circle cx="1086" cy="450" r="348.5" stroke="white" stroke-width="3"/>
<circle cx="776" cy="300" r="49" fill="#007D9E" stroke="white" stroke-width="2"/>
<path d="M776 303.206C777.771 303.206 779.206 301.771 779.206 300C779.206 298.229 777.771 296.794 776 296.794C774.229 296.794 772.794 298.229 772.794 300C772.794 301.771 774.229 303.206 776 303.206Z" fill="#61DAFB"/>
<path d="M788.178 294.712C787.559 294.487 786.912 294.262 786.237 294.066C786.406 293.391 786.547 292.716 786.659 292.069C787.25 288.356 786.603 285.741 784.803 284.728C784.269 284.419 783.678 284.278 783.003 284.278C781.034 284.278 778.531 285.741 776 288.187C773.469 285.741 770.966 284.278 768.997 284.278C768.322 284.278 767.731 284.419 767.197 284.728C765.397 285.769 764.75 288.384 765.341 292.069C765.453 292.716 765.594 293.391 765.762 294.066C765.087 294.262 764.441 294.459 763.822 294.712C760.306 296.062 758.394 297.919 758.394 300C758.394 302.081 760.334 303.937 763.822 305.287C764.441 305.512 765.087 305.737 765.762 305.934C765.594 306.609 765.453 307.284 765.341 307.931C764.75 311.644 765.397 314.259 767.197 315.272C767.731 315.581 768.322 315.722 768.997 315.722C770.994 315.722 773.497 314.259 776 311.812C778.531 314.259 781.034 315.722 783.003 315.722C783.678 315.722 784.269 315.581 784.803 315.272C786.603 314.231 787.25 311.616 786.659 307.931C786.547 307.284 786.406 306.609 786.237 305.934C786.912 305.737 787.559 305.541 788.178 305.287C791.694 303.937 793.606 302.081 793.606 300C793.606 297.919 791.694 296.062 788.178 294.712ZM784.016 286.134C785.169 286.809 785.562 288.891 785.084 291.844C785 292.434 784.859 293.053 784.691 293.7C783.228 293.362 781.681 293.137 780.05 292.997C779.094 291.647 778.109 290.437 777.125 289.341C779.206 287.287 781.316 285.881 783.031 285.881C783.397 285.881 783.734 285.966 784.016 286.134ZM780.866 302.812C780.359 303.712 779.769 304.612 779.15 305.512C778.109 305.597 777.069 305.625 776 305.625C774.903 305.625 773.862 305.597 772.85 305.512C772.231 304.612 771.669 303.712 771.162 302.812C770.628 301.884 770.122 300.928 769.672 300C770.122 299.072 770.628 298.116 771.162 297.187C771.669 296.287 772.259 295.387 772.878 294.487C773.919 294.403 774.959 294.375 776.028 294.375C777.125 294.375 778.166 294.403 779.178 294.487C779.797 295.387 780.359 296.287 780.866 297.187C781.4 298.116 781.906 299.072 782.356 300C781.878 300.928 781.4 301.856 780.866 302.812ZM783.2 301.884C783.622 302.869 783.959 303.825 784.269 304.781C783.312 305.006 782.3 305.175 781.231 305.316C781.569 304.781 781.934 304.219 782.244 303.628C782.581 303.037 782.891 302.447 783.2 301.884ZM776 309.506C775.325 308.775 774.678 307.987 774.059 307.172C774.706 307.2 775.353 307.228 776 307.228C776.647 307.228 777.294 307.2 777.941 307.172C777.322 307.987 776.675 308.775 776 309.506ZM770.769 305.287C769.7 305.147 768.687 304.978 767.731 304.753C768.041 303.825 768.378 302.841 768.8 301.856C769.109 302.419 769.419 303.009 769.756 303.572C770.094 304.191 770.431 304.725 770.769 305.287ZM768.8 298.116C768.378 297.131 768.041 296.175 767.731 295.219C768.687 294.994 769.7 294.825 770.769 294.684C770.431 295.219 770.066 295.781 769.756 296.372C769.419 296.962 769.109 297.553 768.8 298.116ZM776 290.494C776.675 291.225 777.322 292.012 777.941 292.828C777.294 292.8 776.647 292.772 776 292.772C775.353 292.772 774.706 292.8 774.059 292.828C774.678 292.012 775.325 291.225 776 290.494ZM782.244 296.4L781.231 294.712C782.3 294.853 783.312 295.022 784.269 295.247C783.959 296.175 783.622 297.159 783.2 298.144C782.891 297.553 782.581 296.962 782.244 296.4ZM766.916 291.844C766.437 288.891 766.831 286.809 767.984 286.134C768.266 285.966 768.603 285.881 768.969 285.881C770.656 285.881 772.766 287.259 774.875 289.341C773.891 290.409 772.906 291.647 771.95 292.997C770.319 293.137 768.772 293.391 767.309 293.7C767.141 293.053 767.028 292.434 766.916 291.844ZM759.969 300C759.969 298.678 761.572 297.272 764.384 296.231C764.947 296.006 765.566 295.809 766.184 295.641C766.634 297.047 767.197 298.537 767.872 300.028C767.197 301.519 766.606 302.981 766.184 304.387C762.303 303.262 759.969 301.575 759.969 300ZM767.984 313.866C766.831 313.191 766.437 311.109 766.916 308.156C767 307.566 767.141 306.947 767.309 306.3C768.772 306.637 770.319 306.862 771.95 307.003C772.906 308.353 773.891 309.562 774.875 310.659C772.794 312.712 770.684 314.119 768.969 314.119C768.603 314.119 768.266 314.034 767.984 313.866ZM785.084 308.156C785.562 311.109 785.169 313.191 784.016 313.866C783.734 314.034 783.397 314.119 783.031 314.119C781.344 314.119 779.234 312.741 777.125 310.659C778.109 309.591 779.094 308.353 780.05 307.003C781.681 306.862 783.228 306.609 784.691 306.3C784.859 306.947 784.972 307.566 785.084 308.156ZM787.616 303.769C787.053 303.994 786.434 304.191 785.816 304.359C785.366 302.953 784.803 301.462 784.128 299.972C784.803 298.481 785.394 297.019 785.816 295.612C789.697 296.737 792.031 298.425 792.031 300C792.031 301.322 790.4 302.728 787.616 303.769Z" fill="#61DAFB"/>
<circle cx="1086" cy="450" r="448.5" stroke="white" stroke-width="3"/>
<circle cx="1086" cy="450" r="448.5" stroke="white" stroke-width="3"/>
<circle cx="698" cy="688" r="49" fill="#4DB33D" stroke="white" stroke-width="2"/>
<path d="M698 692.503V694.753H702.5C703.097 694.753 703.669 694.516 704.091 694.094C704.513 693.672 704.75 693.1 704.75 692.503V690.253C704.75 689.657 704.513 689.084 704.091 688.662C703.669 688.24 703.097 688.003 702.5 688.003H700.25V685.753H704.75V683.503H700.25C699.653 683.503 699.081 683.74 698.659 684.162C698.237 684.584 698 685.157 698 685.753V688.003C698 688.6 698.237 689.172 698.659 689.594C699.081 690.016 699.653 690.253 700.25 690.253H702.5V692.503H698Z" fill="#215732"/>
<path d="M698 673.378L684.5 681.253V697.003L689 699.253H695.75V684.066C695.75 683.917 695.691 683.774 695.585 683.668C695.48 683.563 695.337 683.503 695.188 683.503H694.062C693.913 683.503 693.77 683.563 693.665 683.668C693.559 683.774 693.5 683.917 693.5 684.066V697.003H689L686.75 695.84V682.544L698 675.982L709.25 682.544V695.71L698 702.272L696.037 701.122L694.625 702.91L698 704.878L711.5 697.003V681.253L698 673.378Z" fill="#215732"/>
<defs>
<linearGradient id="paint0_linear_113_1408" x1="1440" y1="-0.000124792" x2="-595.5" y2="974" gradientUnits="userSpaceOnUse">
<stop stop-color="#56CCF2"/>
<stop offset="1" stop-color="#2F80ED"/>
</linearGradient>
</defs>
</svg>
